External Loads File
version=1
nRows=54
nColumns=13
Range=5.000000e-03-10 seconds
endheader
time 	forceRightX 	forceRightY 	forceRightZ 	pointRightX 	pointRightY 	pointRightZ 	forceLeftX 	forceLeftY 	forceLeftZ 	pointLeftX 	pointLeftY 	pointLeftZ 		
5.005000 268.795197 808.000714 -0.000000 0.275822 0.150633 -0.110148 -70.230780 77.422110 -0.000000 0.310840 0.505510 -0.359401
5.010000 258.228839 726.969543 -0.000000 0.266048 0.151632 -0.109725 -80.667125 84.210246 -0.000000 0.320438 0.504979 -0.360037
5.015000 245.877268 643.794849 -0.000000 0.256248 0.153545 -0.109185 -90.103512 89.673993 -0.000000 0.330049 0.503642 -0.360371
5.020000 231.743265 560.067741 -0.000000 0.246750 0.156648 -0.108759 -98.291203 94.363154 -0.000000 0.339432 0.500897 -0.359828
5.025000 216.167597 477.305153 -0.000000 0.236808 0.160132 -0.109098 -105.162094 98.927802 -0.000000 0.348398 0.498893 -0.359935
5.030000 200.101436 396.284917 -0.000000 0.227387 0.164729 -0.109298 -110.688969 104.265735 -0.000000 0.357190 0.494770 -0.360122
5.035000 182.624657 318.135022 -0.000000 0.218438 0.170395 -0.109514 -115.326349 110.939650 -0.000000 0.365444 0.490554 -0.360294
5.040000 164.194528 243.179624 -0.000000 0.209678 0.176703 -0.109818 -119.227211 119.881245 -0.000000 0.373207 0.485587 -0.360625
5.045000 144.632711 172.249782 -0.000000 0.201299 0.183317 -0.110147 -122.801365 131.748265 -0.000000 0.380483 0.479832 -0.360857
5.050000 124.219505 106.114777 -0.000000 0.193375 0.190572 -0.110513 -126.360521 147.242405 -0.000000 0.387102 0.473311 -0.360357
5.055000 103.347700 45.552503 -0.000000 0.185850 0.198284 -0.110871 -130.125455 166.996697 -0.000000 0.393494 0.466633 -0.360889
5.060000 82.459512 -8.795150 -0.000000 0.178771 0.206461 -0.111139 -133.995499 191.656697 -0.000000 0.399251 0.458546 -0.361296
5.065000 61.973844 -56.067945 -0.000000 0.172180 0.215136 -0.111484 -138.335013 221.234773 -0.000000 0.404576 0.450412 -0.361550
5.070000 42.298516 -95.854308 -0.000000 0.165798 0.224183 -0.112136 -142.566599 256.036045 -0.000000 0.409330 0.441343 -0.362086
5.075000 23.843903 -127.685743 -0.000000 0.160333 0.233402 -0.112356 -146.287175 295.792364 -0.000000 0.413884 0.431209 -0.362936
5.080000 7.455181 -151.322715 -0.000000 0.155397 0.242859 -0.112636 -149.665283 339.594615 -0.000000 0.418001 0.421437 -0.363096
5.085000 -6.386717 -166.985289 -0.000000 0.151161 0.252253 -0.112711 -151.947152 386.723805 -0.000000 0.421366 0.411248 -0.363205
5.090000 -17.196975 -175.278621 -0.000000 0.147572 0.261805 -0.112604 -152.805950 436.130695 -0.000000 0.424268 0.401361 -0.363202
5.095000 -25.554224 -177.101272 -0.000000 0.144393 0.271571 -0.112719 -149.844735 487.484962 -0.000000 0.426684 0.390453 -0.363065
5.100000 -30.515021 -173.848485 -0.000000 0.141881 0.281424 -0.112671 -145.302170 539.068744 -0.000000 0.428645 0.380143 -0.362991
5.105000 -33.303091 -166.810203 -0.000000 0.139953 0.291755 -0.112624 -136.069062 591.008341 -0.000000 0.430043 0.368861 -0.363099
5.110000 -33.648315 -157.568966 -0.000000 0.138599 0.302171 -0.112629 -124.198768 642.163664 -0.000000 0.430984 0.357450 -0.363118
5.115000 -32.079687 -147.480766 -0.000000 0.137839 0.312659 -0.112526 -110.334859 692.067152 -0.000000 0.431438 0.345941 -0.362962
5.120000 -29.041371 -137.661798 -0.000000 0.137894 0.322962 -0.112491 -96.455001 740.281089 -0.000000 0.431164 0.334587 -0.362763
5.125000 -25.768490 -128.669306 -0.000000 0.138449 0.334007 -0.112498 -80.604785 787.110358 -0.000000 0.430606 0.323287 -0.362573
5.130000 -22.566114 -120.852114 -0.000000 0.139684 0.344892 -0.112484 -65.029703 832.452397 -0.000000 0.429843 0.311766 -0.362169
5.135000 -19.866279 -114.225818 -0.000000 0.141536 0.355626 -0.112569 -50.606740 876.601993 -0.000000 0.428265 0.300238 -0.362240
5.140000 -18.004461 -108.652281 -0.000000 0.144229 0.366433 -0.112652 -37.436901 919.909879 -0.000000 0.426323 0.288966 -0.362177
5.145000 -17.075282 -103.957978 -0.000000 0.147243 0.377067 -0.112933 -25.939221 962.502830 -0.000000 0.423882 0.277860 -0.362109
5.150000 -17.046855 -99.989327 -0.000000 0.150949 0.387212 -0.113224 -16.407793 1004.250463 -0.000000 0.420935 0.267006 -0.362193
5.155000 -18.195302 -96.561703 -0.000000 0.155384 0.397781 -0.113576 -5.049661 1044.864904 -0.000000 0.417372 0.256437 -0.362326
5.160000 -20.130920 -93.597294 -0.000000 0.160214 0.407987 -0.113926 5.514051 1083.893289 -0.000000 0.413273 0.246276 -0.362423
5.165000 -22.826537 -90.950877 -0.000000 0.165609 0.417782 -0.114320 16.136722 1121.011044 -0.000000 0.408652 0.236492 -0.362561
5.170000 -26.346190 -88.475014 -0.000000 0.171747 0.427442 -0.114720 28.853779 1155.890748 -0.000000 0.403528 0.227026 -0.362714
5.175000 -30.493961 -86.130766 -0.000000 0.178220 0.436806 -0.115080 42.386235 1188.156565 -0.000000 0.397991 0.217959 -0.362803
5.180000 -35.186534 -83.888221 -0.000000 0.185141 0.445593 -0.115554 56.663634 1217.222473 -0.000000 0.392035 0.209326 -0.362904
5.185000 -40.431636 -81.690233 -0.000000 0.192663 0.453833 -0.116030 72.771135 1242.256958 -0.000000 0.385648 0.201152 -0.362959
5.190000 -46.265085 -79.445192 -0.000000 0.200658 0.461646 -0.116364 91.908316 1262.329286 -0.000000 0.378810 0.193089 -0.363017
5.195000 -52.570910 -77.134422 -0.000000 0.209068 0.469049 -0.116697 112.094074 1276.820344 -0.000000 0.371545 0.185959 -0.363032
5.200000 -59.410922 -74.619673 -0.000000 0.217876 0.475817 -0.117191 133.431365 1285.187893 -0.000000 0.363969 0.179327 -0.363064
5.205000 -66.783137 -71.724140 -0.000000 0.227021 0.481843 -0.117485 155.355609 1287.124407 -0.000000 0.356040 0.173299 -0.363090
5.210000 -74.572820 -68.296217 -0.000000 0.235983 0.487383 -0.118125 176.287247 1282.614714 -0.000000 0.347773 0.167818 -0.363086
5.215000 -82.860739 -63.925429 -0.000000 0.245704 0.492199 -0.118442 199.041861 1271.147894 -0.000000 0.339106 0.162960 -0.363190
5.220000 -91.398161 -58.506218 -0.000000 0.255638 0.496564 -0.118673 220.894597 1252.982360 -0.000000 0.330270 0.158748 -0.363204
5.225000 -99.980334 -51.898804 -0.000000 0.265515 0.500173 -0.119141 240.516729 1228.220013 -0.000000 0.321265 0.154952 -0.363216
5.230000 -108.464171 -43.852168 -0.000000 0.275750 0.502969 -0.119574 258.932305 1196.387219 -0.000000 0.312107 0.151686 -0.363500
5.235000 -116.600491 -34.285971 -0.000000 0.286054 0.505229 -0.119782 276.184808 1156.975170 -0.000000 0.302450 0.149137 -0.362626
5.240000 -123.996546 -23.650701 -0.000000 0.296234 0.506812 -0.120082 288.758252 1110.300587 -0.000000 0.293073 0.147416 -0.362913
5.245000 -130.415652 -12.011277 -0.000000 0.306546 0.507536 -0.120344 298.619178 1055.485353 -0.000000 0.283617 0.146415 -0.363142
5.250000 -135.538249 0.003667 -0.000000 0.316497 0.507816 -0.120558 303.440741 992.928700 -0.000000 0.274293 0.146089 -0.363415
5.255000 -139.101067 12.281503 -0.000000 0.326635 0.507456 -0.120760 305.080525 922.061391 -0.000000 0.264923 0.146545 -0.363733
5.260000 -140.921183 24.101497 -0.000000 0.336234 0.506529 -0.120989 300.770241 844.047579 -0.000000 0.255803 0.147890 -0.363992
5.265000 -140.960453 35.363193 -0.000000 0.345592 0.504842 -0.121115 291.565899 759.273655 -0.000000 0.246889 0.150096 -0.364036
5.270000 -139.366136 46.032660 -0.000000 0.354670 0.502598 -0.121106 277.606861 668.926259 -0.000000 0.238123 0.153322 -0.363870
